{"title":"Sleepy Hollow S01E01 Pilot (1920x1080)(5.1) [Phr0stY].mkv","uid":8930466,"size":1884323027,"categoryP":"video","categoryS":"hd___tv_shows","magnet":"?xt=urn:btih:329d51e717cdfa51c74875c2fb02a2b24983ea0f&amp;dn=Sleepy+Hollow+S01E01+Pilot+%281920x1080%29%285.1%29+%5BPhr0stY%5D.mkv&amp;tr=udp%3A%2F%2Ftracker.openbittorrent.com%3A80&amp;tr=udp%3A%2F%2Fopen.demonii.com%3A1337&amp;tr=udp%3A%2F%2Ftracker.coppersurfer.tk%3A6969&amp;tr=udp%3A%2F%2Fexodus.desync.com%3A6969","seeders":5,"leechers":0,"uploader":"frostyon420","files":-1,"time":1379460058,"description":"Complete name                            : D:TV showsFoxSleepy HollowSleepy Hollow S01E01 Pilot (1920x1080)(5.1) [Phr0stY].mkv\nFormat                                   : Matroska\nFormat version                           : Version 2\nFile size                                : 1.75 GiB\nDuration                                 : 44mn 55s\nOverall bit rate                         : 5 592 Kbps\nWriting application                      : Lavf54.59.106\nWriting library                          : Lavf54.59.106\n\nVideo\nID                                       : 1\nFormat                                   : AVC\nFormat/Info                              : Advanced Video Codec\nFormat profile                           : &lt;a class=&quot;__cf_email__&quot; href=&quot;/cdn-cgi/l/email-protection&quot; data-cfemail=&quot;2961404e4169651d0719&quot;&gt;[email&amp;#160;protected]&lt;/a&gt;&lt;script cf-hash='f9e31' type=&quot;text/javascript&quot;&gt;\n/* &lt;![CDATA[ */!function(){try{var t=&quot;currentScript&quot;in document?document.currentScript:function(){for(var t=document.getElementsByTagName(&quot;script&quot;),e=t.length;e--;)if(t[e].getAttribute(&quot;cf-hash&quot;))return t[e]}();if(t&amp;&amp;t.previousSibling){var e,r,n,i,c=t.previousSibling,a=c.getAttribute(&quot;data-cfemail&quot;);if(a){for(e=&quot;&quot;,r=parseInt(a.substr(0,2),16),n=2;a.length-n;n+=2)i=parseInt(a.substr(n,2),16)^r,e+=String.fromCharCode(i);e=document.createTextNode(e),c.parentNode.replaceChild(e,c)}}}catch(u){}}();/* ]]&gt; */&lt;/script&gt;\nFormat settings, CABAC                   : Yes\nFormat settings, ReFrames                : 4 frames\nCodec ID                                 : V_MPEG4/ISO/AVC\nDuration                                 : 44mn 55s\nBit rate                                 : 5 097 Kbps\nWidth                                    : 1 912 pixels\nHeight                                   : 1 072 pixels\nDisplay aspect ratio                     : 16:9\nFrame rate mode                          : Constant\nFrame rate                               : 23.976 fps\nColor space                              : YUV\nChroma subsampling                       : 4:2:0\nBit depth                                : 8 bits\nScan type                                : Progressive\nBits/(Pixel*Frame)                       : 0.104\nStream size                              : 1.60 GiB (91%)\nDefault                                  : Yes\nForced                                   : No\nColor primaries                          : BT.709\nTransfer characteristics                 : BT.709\nMatrix coefficients                      : BT.709\n\nAudio\nID                                       : 2\nFormat                                   : AC-3\nFormat/Info                              : Audio Coding 3\nMode extension                           : CM (complete main)\nFormat settings, Endianness              : Big\nCodec ID                                 : A_AC3\nDuration                                 : 44mn 55s\nBit rate mode                            : Constant\nBit rate                                 : 384 Kbps\nChannel count                            : 6 channels\nChannel positions                        : Front: L C R, Side: L R, LFE\nSampling rate                            : 48.0 KHz\nBit depth                                : 16 bits\nCompression mode                         : Lossy\nDelay relative to video                  : 16ms\nStream size                              : 123 MiB (7%)\nDefault                                  : Yes\nForced                                   : No\n\n","torrent":{"xt":"urn:btih:329d51e717cdfa51c74875c2fb02a2b24983ea0f","amp;dn":"Sleepy+Hollow+S01E01+Pilot+%281920x1080%29%285.1%29+%5BPhr0stY%5D.mkv","amp;tr":["udp%3A%2F%2Ftracker.openbittorrent.com%3A80","udp%3A%2F%2Fopen.demonii.com%3A1337","udp%3A%2F%2Ftracker.coppersurfer.tk%3A6969","udp%3A%2F%2Fexodus.desync.com%3A6969"],"infoHash":"329d51e717cdfa51c74875c2fb02a2b24983ea0f","infoHashBuffer":{"type":"Buffer","data":[50,157,81,231,23,205,250,81,199,72,117,194,251,2,162,178,73,131,234,15]},"announce":[],"urlList":[]}}